<svg data-v-423bf9ae="" xmlns="http://www.w3.org/2000/svg" viewBox="0 0 618 90" class="iconLeft"><g data-v-423bf9ae="" id="53a46da3-44d8-4c20-b7e6-07d7101b509d" fill="#0F104F" transform="matrix(5.8365760270947415,0,0,5.8365760270947415,108.01914628030482,12.315176379541384)"><path d="M9.31 3.68L9.86 9.07L8.72 9.51L8.86 10.50L12.82 10.50L12.96 9.51L11.80 9.07L11.13 2.16L12.31 1.69L12.14 0.70L9.25 0.70L6.48 8.22L6.48 6.82L4.21 0.70L1.40 0.70L1.25 1.69L2.41 2.16L1.60 9.06L0.41 9.51L0.57 10.50L3.68 10.50L3.82 9.51L2.69 9.06L3.32 4.03L5.77 10.74L6.82 10.50ZM15.75 6.38C15.88 5.38 16.46 4.69 17.37 4.69C18.10 4.69 18.66 5.15 18.66 5.98C18.66 6.10 18.65 6.24 18.62 6.38ZM17.68 9.63C16.48 9.63 15.74 8.65 15.71 7.25L20.12 7.25C20.29 6.96 20.43 6.45 20.43 6.08C20.43 4.70 19.05 3.81 17.37 3.81C15.37 3.81 13.79 5.08 13.79 7.22C13.79 9.30 14.95 10.65 17.61 10.65C18.54 10.65 19.42 10.43 20.31 9.70L19.84 8.99C19.12 9.46 18.40 9.63 17.68 9.63ZM21.55 0.70L21.41 1.69L22.58 2.16L22.58 9.06L21.41 9.51L21.55 10.50L28.98 10.50L28.98 7.55L27.99 7.41L27.22 9.51L24.51 9.51L24.51 2.16L25.70 1.69L25.55 0.70ZM32.34 9.34L32.34 3.96L31.49 3.81L29.78 3.96L29.93 4.82L30.58 4.82L30.58 9.34L29.68 9.65L29.85 10.50L33.07 10.50L33.24 9.65ZM31.35 0.74C30.86 0.74 30.44 1.15 30.44 1.65C30.44 2.14 30.86 2.56 31.35 2.56C31.85 2.56 32.26 2.14 32.26 1.65C32.26 1.15 31.85 0.74 31.35 0.74ZM42.84 9.56C40.45 9.56 39.82 7.43 39.82 5.53C39.82 2.88 40.89 1.64 42.84 1.64C43.30 1.64 44.00 1.72 44.51 1.86L45.15 3.70L46.16 3.54L46.16 1.36C45.11 0.76 44.09 0.46 42.84 0.46C39.42 0.46 37.72 3.02 37.72 5.60C37.72 8.18 39.20 10.74 42.84 10.74C43.99 10.74 45.37 10.39 46.16 9.83L46.16 7.56L45.16 7.42L44.45 9.37C43.99 9.49 43.25 9.56 42.84 9.56ZM50.44 3.81C48.31 3.81 46.94 5.14 46.94 7.22C46.94 9.31 48.19 10.64 50.44 10.64C52.71 10.64 53.93 9.37 53.93 7.22C53.93 5.08 52.56 3.81 50.44 3.81ZM50.44 4.69C51.48 4.69 52.15 5.61 52.15 7.18C52.15 8.74 51.51 9.76 50.44 9.76C49.35 9.76 48.75 8.72 48.75 7.18C48.75 5.64 49.41 4.69 50.44 4.69ZM57.47 10.64C59.16 10.64 60.26 9.84 60.26 8.61C60.26 7.53 59.47 7.08 58.51 6.62C57.81 6.29 56.69 5.96 56.69 5.42C56.69 5.00 57.15 4.69 57.71 4.69C58.04 4.69 58.42 4.75 58.76 4.83L59.05 5.91L60.00 5.74L60.00 4.40C59.40 4.03 58.62 3.81 57.85 3.81C56.17 3.81 55.08 4.44 55.08 5.63C55.08 6.85 56.34 7.43 57.26 7.87C57.89 8.16 58.65 8.55 58.65 9.00C58.65 9.52 58.04 9.76 57.36 9.76C57.18 9.76 56.69 9.70 56.46 9.62L55.99 8.23L55.05 8.41L55.05 10.07C55.85 10.46 56.85 10.64 57.47 10.64ZM68.04 6.16C68.04 5.74 67.97 5.43 67.83 5.10C68.10 4.97 68.56 4.82 69.08 4.82C69.66 4.82 70.35 5.22 70.35 6.05L70.35 9.34L69.47 9.65L69.64 10.50L72.83 10.50L73.00 9.65L72.10 9.34L72.10 6.17C72.10 4.65 71.13 3.81 69.31 3.81C68.61 3.81 67.77 4.07 67.31 4.33C66.91 3.95 66.23 3.81 65.48 3.81C64.89 3.81 64.19 4.02 63.73 4.17L63.15 3.81L61.40 3.96L61.56 4.82L62.19 4.82L62.19 9.34L61.31 9.65L61.47 10.50L64.67 10.50L64.83 9.65L63.95 9.34L63.95 5.10C64.32 4.97 64.81 4.82 65.17 4.82C65.72 4.82 66.28 5.19 66.28 5.92L66.28 9.34L65.39 9.65L65.56 10.50L68.77 10.50L68.94 9.65L68.04 9.34ZM77.55 3.81C75.42 3.81 74.05 5.14 74.05 7.22C74.05 9.31 75.29 10.64 77.55 10.64C79.81 10.64 81.03 9.37 81.03 7.22C81.03 5.08 79.66 3.81 77.55 3.81ZM77.55 4.69C78.58 4.69 79.25 5.61 79.25 7.18C79.25 8.74 78.61 9.76 77.55 9.76C76.45 9.76 75.85 8.72 75.85 7.18C75.85 5.64 76.51 4.69 77.55 4.69ZM84.57 10.64C86.27 10.64 87.36 9.84 87.36 8.61C87.36 7.53 86.58 7.08 85.61 6.62C84.91 6.29 83.79 5.96 83.79 5.42C83.79 5.00 84.25 4.69 84.81 4.69C85.15 4.69 85.53 4.75 85.86 4.83L86.16 5.91L87.11 5.74L87.11 4.40C86.51 4.03 85.72 3.81 84.95 3.81C83.27 3.81 82.18 4.44 82.18 5.63C82.18 6.85 83.44 7.43 84.36 7.87C84.99 8.16 85.75 8.55 85.75 9.00C85.75 9.52 85.15 9.76 84.46 9.76C84.28 9.76 83.79 9.70 83.57 9.62L83.09 8.23L82.15 8.41L82.15 10.07C82.95 10.46 83.96 10.64 84.57 10.64Z"></path></g><defs data-v-423bf9ae=""><linearGradient data-v-423bf9ae="" gradientTransform="rotate(25)" id="df3a09e4-90d9-4e7c-a85b-76ddf9089e47" x1="0%" y1="0%" x2="100%" y2="0%"><stop data-v-423bf9ae="" offset="0%" style="stop-color: rgb(13, 33, 117); stop-opacity: 1;"></stop><stop data-v-423bf9ae="" offset="100%" style="stop-color: rgb(31, 30, 251); stop-opacity: 1;"></stop></linearGradient></defs><g data-v-423bf9ae="" id="cd25eb6e-edd5-4718-8c03-8673aca6ebb8" transform="matrix(1.00457943889419,0,0,1.00457943889419,-4.2289719447094996,-5.023832640299176)" stroke="none" fill="url(#df3a09e4-90d9-4e7c-a85b-76ddf9089e47)"><path d="M27.143 94.794C14.932 94.794 5 84.862 5 72.652V35.498c0-3.549 2.877-6.427 6.428-6.427s6.428 2.878 6.428 6.427v37.155c0 5.121 4.166 9.287 9.287 9.287s9.287-4.166 9.287-9.287a9.28 9.28 0 0 0-5.068-8.279 6.43 6.43 0 0 1 5.868-11.443c7.433 3.814 12.056 11.37 12.056 19.72-.001 12.211-9.932 22.143-22.143 22.143"></path><path d="M65.715 79.083a6.43 6.43 0 0 1-6.431-6.431c0-15.46-11.01-28.752-26.177-31.594a6.43 6.43 0 0 1-5.139-7.5 6.433 6.433 0 0 1 7.506-5.136c21.246 3.981 36.668 22.584 36.668 44.23a6.43 6.43 0 0 1-6.427 6.431"></path><path d="M88.572 79.083a6.43 6.43 0 0 1-6.431-6.431c0-27.938-20.892-51.424-48.595-54.632a6.429 6.429 0 1 1 1.48-12.773C69.216 9.207 95 38.185 95 72.652a6.43 6.43 0 0 1-6.428 6.431"></path></g></svg>