<?xml version="1.0" encoding="UTF-8" standalone="no"?>
<!-- Created with Inkscape (http://www.inkscape.org/) -->

<svg
   width="23.921547mm"
   height="23.812498mm"
   viewBox="0 0 23.921547 23.812498"
   version="1.1"
   id="svg1"
   inkscape:version="1.4.3 (0d15f75042, 2025-12-25)"
   sodipodi:docname="logo.svg"
   xmlns:inkscape="http://www.inkscape.org/namespaces/inkscape"
   xmlns:sodipodi="http://sodipodi.sourceforge.net/DTD/sodipodi-0.dtd"
   xmlns:xlink="http://www.w3.org/1999/xlink"
   xmlns="http://www.w3.org/2000/svg"
   xmlns:svg="http://www.w3.org/2000/svg">
  <sodipodi:namedview
     id="namedview1"
     pagecolor="#ffffff"
     bordercolor="#000000"
     borderopacity="0.25"
     inkscape:showpageshadow="2"
     inkscape:pageopacity="0.0"
     inkscape:pagecheckerboard="0"
     inkscape:deskcolor="#d1d1d1"
     inkscape:document-units="mm"
     inkscape:zoom="3.1446015"
     inkscape:cx="-0.95401596"
     inkscape:cy="43.566729"
     inkscape:window-width="1440"
     inkscape:window-height="889"
     inkscape:window-x="0"
     inkscape:window-y="0"
     inkscape:window-maximized="1"
     inkscape:current-layer="layer1" />
  <defs
     id="defs1">
    <linearGradient
       data-v-423bf9ae=""
       gradientTransform="rotate(25)"
       id="a7ec81e9-458b-4822-8935-20e98eadb22f"
       x1="0"
       y1="0"
       x2="1"
       y2="0">
      <stop
         data-v-423bf9ae=""
         offset="0%"
         style="stop-color: rgb(13, 33, 117); stop-opacity: 1;"
         id="stop1" />
      <stop
         data-v-423bf9ae=""
         offset="100%"
         style="stop-color: rgb(31, 30, 251); stop-opacity: 1;"
         id="stop2" />
    </linearGradient>
    <linearGradient
       inkscape:collect="always"
       xlink:href="#a7ec81e9-458b-4822-8935-20e98eadb22f"
       id="linearGradient9"
       gradientTransform="scale(0.82087029,1.2182193)"
       x1="6.0910964"
       y1="23.86352"
       x2="60.041153"
       y2="23.86352"
       gradientUnits="userSpaceOnUse" />
    <linearGradient
       inkscape:collect="always"
       xlink:href="#a7ec81e9-458b-4822-8935-20e98eadb22f"
       id="linearGradient10"
       gradientTransform="scale(0.93392517,1.0707496)"
       x1="29.829887"
       y1="26.441475"
       x2="77.246017"
       y2="26.441475"
       gradientUnits="userSpaceOnUse" />
    <linearGradient
       inkscape:collect="always"
       xlink:href="#a7ec81e9-458b-4822-8935-20e98eadb22f"
       id="linearGradient11"
       gradientTransform="scale(0.95332593,1.0489592)"
       x1="29.220615"
       y1="4.9613667"
       x2="99.651123"
       y2="4.9613667"
       gradientUnits="userSpaceOnUse" />
    <linearGradient
       inkscape:collect="always"
       xlink:href="#a7ec81e9-458b-4822-8935-20e98eadb22f"
       id="linearGradient12"
       gradientTransform="scale(1.0022871,0.99771811)"
       x1="4.9885907"
       y1="5.2161741"
       x2="94.783218"
       y2="5.2161741"
       gradientUnits="userSpaceOnUse" />
    <pattern
       patternUnits="userSpaceOnUse"
       width="90.412144"
       height="89.999994"
       patternTransform="translate(352,516)"
       preserveAspectRatio="xMidYMid"
       id="pattern6">
      <g
         data-v-423bf9ae=""
         id="g6"
         transform="matrix(1.0045794,0,0,1.0045794,-5.0228969,-5.2281036)"
         stroke="none"
         fill="url(#a7ec81e9-458b-4822-8935-20e98eadb22f)"
         style="fill:url(#linearGradient12)">
        <path
           d="M 27.143,94.794 C 14.932,94.794 5,84.862 5,72.652 V 35.498 c 0,-3.549 2.877,-6.427 6.428,-6.427 3.551,0 6.428,2.878 6.428,6.427 v 37.155 c 0,5.121 4.166,9.287 9.287,9.287 5.121,0 9.287,-4.166 9.287,-9.287 A 9.28,9.28 0 0 0 31.362,64.374 6.43,6.43 0 0 1 37.23,52.931 c 7.433,3.814 12.056,11.37 12.056,19.72 -0.001,12.211 -9.932,22.143 -22.143,22.143"
           id="path1"
           style="fill:url(#linearGradient9)" />
        <path
           d="m 65.715,79.083 a 6.43,6.43 0 0 1 -6.431,-6.431 c 0,-15.46 -11.01,-28.752 -26.177,-31.594 a 6.43,6.43 0 0 1 -5.139,-7.5 6.433,6.433 0 0 1 7.506,-5.136 c 21.246,3.981 36.668,22.584 36.668,44.23 a 6.43,6.43 0 0 1 -6.427,6.431"
           id="path5"
           style="fill:url(#linearGradient10)" />
        <path
           d="M 88.572,79.083 A 6.43,6.43 0 0 1 82.141,72.652 C 82.141,44.714 61.249,21.228 33.546,18.02 A 6.4292287,6.4292287 0 1 1 35.026,5.247 C 69.216,9.207 95,38.185 95,72.652 a 6.43,6.43 0 0 1 -6.428,6.431"
           id="path6"
           style="fill:url(#linearGradient11)" />
      </g>
    </pattern>
    <linearGradient
       inkscape:collect="always"
       xlink:href="#a7ec81e9-458b-4822-8935-20e98eadb22f"
       id="linearGradient6"
       gradientUnits="userSpaceOnUse"
       gradientTransform="scale(0.82087029,1.2182193)"
       x1="6.0910964"
       y1="23.86352"
       x2="60.041153"
       y2="23.86352" />
    <linearGradient
       inkscape:collect="always"
       xlink:href="#a7ec81e9-458b-4822-8935-20e98eadb22f"
       id="linearGradient7"
       gradientUnits="userSpaceOnUse"
       gradientTransform="scale(0.93392517,1.0707496)"
       x1="29.829887"
       y1="26.441475"
       x2="77.246017"
       y2="26.441475" />
    <linearGradient
       inkscape:collect="always"
       xlink:href="#a7ec81e9-458b-4822-8935-20e98eadb22f"
       id="linearGradient8"
       gradientUnits="userSpaceOnUse"
       gradientTransform="scale(0.95332593,1.0489592)"
       x1="29.220615"
       y1="4.9613667"
       x2="99.651123"
       y2="4.9613667" />
    <linearGradient
       inkscape:collect="always"
       xlink:href="#a7ec81e9-458b-4822-8935-20e98eadb22f"
       id="linearGradient13"
       gradientUnits="userSpaceOnUse"
       gradientTransform="scale(1.0022871,0.99771811)"
       x1="4.9885907"
       y1="5.2161741"
       x2="94.783218"
       y2="5.2161741" />
  </defs>
  <g
     inkscape:label="图层 1"
     inkscape:groupmode="layer"
     id="layer1"
     transform="translate(-93.133332,-136.525)">
    <g
       data-v-423bf9ae=""
       id="a0a7ac51-c8d2-4b20-993e-2be79d3dacb7"
       transform="matrix(0.26579496,0,0,0.26579496,91.804359,135.14173)"
       stroke="none"
       fill="url(#a7ec81e9-458b-4822-8935-20e98eadb22f)"
       style="fill:url(#linearGradient13)">
      <path
         d="M 27.143,94.794 C 14.932,94.794 5,84.862 5,72.652 V 35.498 c 0,-3.549 2.877,-6.427 6.428,-6.427 3.551,0 6.428,2.878 6.428,6.427 v 37.155 c 0,5.121 4.166,9.287 9.287,9.287 5.121,0 9.287,-4.166 9.287,-9.287 A 9.28,9.28 0 0 0 31.362,64.374 6.43,6.43 0 0 1 37.23,52.931 c 7.433,3.814 12.056,11.37 12.056,19.72 -0.001,12.211 -9.932,22.143 -22.143,22.143"
         id="path2"
         style="fill:url(#linearGradient6)" />
      <path
         d="m 65.715,79.083 a 6.43,6.43 0 0 1 -6.431,-6.431 c 0,-15.46 -11.01,-28.752 -26.177,-31.594 a 6.43,6.43 0 0 1 -5.139,-7.5 6.433,6.433 0 0 1 7.506,-5.136 c 21.246,3.981 36.668,22.584 36.668,44.23 a 6.43,6.43 0 0 1 -6.427,6.431"
         id="path3"
         style="fill:url(#linearGradient7)" />
      <path
         d="M 88.572,79.083 A 6.43,6.43 0 0 1 82.141,72.652 C 82.141,44.714 61.249,21.228 33.546,18.02 A 6.4292287,6.4292287 0 1 1 35.026,5.247 C 69.216,9.207 95,38.185 95,72.652 a 6.43,6.43 0 0 1 -6.428,6.431"
         id="path4"
         style="fill:url(#linearGradient8)" />
    </g>
    <rect
       style="fill:url(#pattern6);stroke:none"
       transform="scale(0.26458333)"
       width="90.412148"
       height="89.999992"
       x="352"
       y="516"
       id="rect6" />
  </g>
</svg>
